# xmcd
#
# Track frame offsets:
#	150
#	27475
#	43212
#	66840
#	100533
#	120946
#	147897
#	172502
#	190973
#	206219
#	250060
#	273385
#
# Disc length: 3963 seconds
#
# Revision: 0
# Processed by: cddbd v1.5.2PL0 Copyright (c) Steve Scherf et al.
# Submitted via: EZCDAudioConverter 3.0.6.1
#
DISCID=a40f790c
DTITLE=Krissy Matthews - Scenes From A Moving Window
DYEAR=2015
DGENRE=Blues
TTITLE0=If I Had A Time Machine
TTITLE1=I've Been Searching
TTITLE2=It Ain't Worth It
TTITLE3=Day By Day
TTITLE4=Can't Get It Down On Paper
TTITLE5=Out Of Control
TTITLE6=Bubbles And The Seven Phones
TTITLE7=Searching The Desert For The Blues
TTITLE8=Roadsick Blues
TTITLE9=Heading South
TTITLE10=Language By Injection
TTITLE11=Bad Boy
EXTD=
EXTT0=
EXTT1=
EXTT2=
EXTT3=
EXTT4=
EXTT5=
EXTT6=
EXTT7=
EXTT8=
EXTT9=
EXTT10=
EXTT11=
PLAYORDER=
